<svg xmlns="http://www.w3.org/2000/svg" width="61" height="53.361" viewBox="0 0 61 53.361"><defs><style>.a{fill:#494d54;}.b{fill:#fff;}</style></defs><g transform="translate(-3726 -79.304)"><path class="a" d="M3786.41,88.636a2.581,2.581,0,0,0-1.992-.94h-32.6a2.582,2.582,0,1,0,0,5.164h29.466l-3.515,18.074h-25.712l-9.726-29.848a2.582,2.582,0,0,0-2.455-1.782h-11.3a2.582,2.582,0,1,0,0,5.164H3738l11.665,35.8a7.053,7.053,0,1,0,11.1,8.1h5.53a7.068,7.068,0,1,0-.128-5.164h-5.273a7.06,7.06,0,0,0-6.348-4.635l-.8-2.466H3779.9a2.583,2.583,0,0,0,2.534-2.089l4.519-23.238A2.58,2.58,0,0,0,3786.41,88.636Zm-13.618,34.613a2.359,2.359,0,1,1-2.359,2.358A2.36,2.36,0,0,1,3772.792,123.249Zm-18.584,0a2.359,2.359,0,1,1-2.359,2.358A2.361,2.361,0,0,1,3754.208,123.249Z"/><path class="b" d="M3772.792,127.966a2.359,2.359,0,1,0-2.359-2.359A2.36,2.36,0,0,0,3772.792,127.966Z"/><path class="b" d="M3751.849,125.607a2.358,2.358,0,1,0,2.359-2.358A2.361,2.361,0,0,0,3751.849,125.607Z"/></g></svg>